<svg width="24" height="27" viewBox="0 0 24 27" fill="none" xmlns="http://www.w3.org/2000/svg">
<g clip-path="url(#clip0_139_34)">
<path d="M8.4375 4.21875C8.4375 2.82129 9.57129 1.6875 10.9688 1.6875H12.6562C14.0537 1.6875 15.1875 2.82129 15.1875 4.21875V22.7812C15.1875 24.1787 14.0537 25.3125 12.6562 25.3125H10.9688C9.57129 25.3125 8.4375 24.1787 8.4375 22.7812V4.21875ZM0 14.3438C0 12.9463 1.13379 11.8125 2.53125 11.8125H4.21875C5.61621 11.8125 6.75 12.9463 6.75 14.3438V22.7812C6.75 24.1787 5.61621 25.3125 4.21875 25.3125H2.53125C1.13379 25.3125 0 24.1787 0 22.7812V14.3438ZM19.4062 5.0625H21.0938C22.4912 5.0625 23.625 6.19629 23.625 7.59375V22.7812C23.625 24.1787 22.4912 25.3125 21.0938 25.3125H19.4062C18.0088 25.3125 16.875 24.1787 16.875 22.7812V7.59375C16.875 6.19629 18.0088 5.0625 19.4062 5.0625Z" fill="#4592A3"/>
</g>
<defs>
<clipPath id="clip0_139_34">
<rect width="23.625" height="27" fill="white"/>
</clipPath>
</defs>
</svg>
