<svg width="497" height="440" viewBox="0 0 497 440" fill="none" xmlns="http://www.w3.org/2000/svg">
<g filter="url(#filter0_d_364_48)">
<path d="M4 20C4 8.95432 12.9543 0 24 0H473C484.046 0 493 8.95431 493 20V409C493 420.046 484.046 429 473 429H24C12.9543 429 4 420.046 4 409V20Z" fill="#083138"/>
</g>
<path d="M249.424 90L357.847 152.105V276.314L249.424 338.418L141 276.314V152.105L249.424 90Z" fill="url(#paint0_linear_364_48)"/>
<mask id="mask0_364_48" style="mask-type:luminance" maskUnits="userSpaceOnUse" x="196" y="168" width="106" height="92">
<path d="M249.302 168.448L269.081 217.29L301.313 259.099L248.789 251.672L196.177 258.461L228.922 217.046L249.302 168.448Z" fill="white"/>
</mask>
<g mask="url(#mask0_364_48)">
<path d="M249.302 168.448L294.348 150.493L250.086 41.1929L204.48 149.948L249.302 168.448ZM269.081 217.29L224.035 235.245L226.501 241.336L230.521 246.55L269.081 217.29ZM301.313 259.099L294.463 306.78L412.003 323.401L339.873 229.839L301.313 259.099ZM248.789 251.672L255.639 203.991L249.088 203.065L242.527 203.911L248.789 251.672ZM196.177 258.461L157.981 228.735L84.7024 321.415L202.439 306.221L196.177 258.461ZM228.922 217.046L267.119 246.772L271.202 241.607L273.744 235.546L228.922 217.046ZM204.256 186.403L224.035 235.245L314.127 199.335L294.348 150.493L204.256 186.403ZM230.521 246.55L262.753 288.359L339.873 229.839L307.64 188.03L230.521 246.55ZM308.163 211.418L255.639 203.991L241.939 299.353L294.463 306.78L308.163 211.418ZM242.527 203.911L189.915 210.701L202.439 306.221L255.05 299.432L242.527 203.911ZM234.373 288.187L267.119 246.772L190.726 187.32L157.981 228.735L234.373 288.187ZM273.744 235.546L294.123 186.948L204.48 149.948L184.101 198.546L273.744 235.546Z" fill="#E2E2E2"/>
</g>
<defs>
<filter id="filter0_d_364_48" x="0" y="0" width="497" height="440" filterUnits="userSpaceOnUse" color-interpolation-filters="sRGB">
<feFlood flood-opacity="0" result="BackgroundImageFix"/>
<feColorMatrix in="SourceAlpha" type="matrix" values="0 0 0 0 0 0 0 0 0 0 0 0 0 0 0 0 0 0 127 0" result="hardAlpha"/>
<feOffset dy="7"/>
<feGaussianBlur stdDeviation="2"/>
<feComposite in2="hardAlpha" operator="out"/>
<feColorMatrix type="matrix" values="0 0 0 0 0 0 0 0 0 0 0 0 0 0 0 0 0 0 0.25 0"/>
<feBlend mode="normal" in2="BackgroundImageFix" result="effect1_dropShadow_364_48"/>
<feBlend mode="normal" in="SourceGraphic" in2="effect1_dropShadow_364_48" result="shape"/>
</filter>
<linearGradient id="paint0_linear_364_48" x1="249.424" y1="90" x2="249.424" y2="338.418" gradientUnits="userSpaceOnUse">
<stop stop-color="#13505B"/>
<stop offset="1" stop-color="#28AAC1"/>
</linearGradient>
</defs>
</svg>
