<svg width="150" height="76" viewBox="0 0 150 76" fill="none" xmlns="http://www.w3.org/2000/svg">
<path d="M38.2813 0L71.4338 19V57L38.2813 76L5.12872 57V19L38.2813 0Z" fill="url(#paint0_linear_102_28)"/>
<path d="M101.412 34.625C101.412 35.6673 101.159 36.6444 100.653 37.5564C100.166 38.4684 99.3875 39.2036 98.3187 39.7619C97.2687 40.3203 95.9375 40.5995 94.325 40.5995H91.0344V48.0816H87.0969V28.5946H94.325C95.8437 28.5946 97.1375 28.8552 98.2062 29.3763C99.275 29.8975 100.072 30.614 100.597 31.526C101.141 32.438 101.412 33.471 101.412 34.625ZM94.1562 37.4447C95.2437 37.4447 96.05 37.2028 96.575 36.7188C97.1 36.2163 97.3625 35.5184 97.3625 34.625C97.3625 32.7265 96.2937 31.7773 94.1562 31.7773H91.0344V37.4447H94.1562ZM118.692 40.0132C118.692 40.5716 118.655 41.0741 118.58 41.5208H107.189C107.283 42.6375 107.677 43.5123 108.37 44.1451C109.064 44.778 109.917 45.0944 110.93 45.0944C112.392 45.0944 113.433 44.4708 114.052 43.2238H118.298C117.848 44.7128 116.986 45.9412 115.711 46.9091C114.436 47.8583 112.87 48.3329 111.014 48.3329C109.514 48.3329 108.164 48.0072 106.964 47.3557C105.783 46.6857 104.855 45.7458 104.18 44.536C103.523 43.3262 103.195 41.9303 103.195 40.3482C103.195 38.7476 103.523 37.3424 104.18 36.1326C104.836 34.9228 105.755 33.9922 106.936 33.3407C108.117 32.6893 109.477 32.3636 111.014 32.3636C112.495 32.3636 113.817 32.68 114.98 33.3128C116.161 33.9456 117.07 34.8483 117.708 36.0209C118.364 37.1748 118.692 38.5056 118.692 40.0132ZM114.614 38.8965C114.595 37.8914 114.23 37.0911 113.517 36.4955C112.805 35.8813 111.933 35.5742 110.902 35.5742C109.927 35.5742 109.102 35.872 108.427 36.4676C107.77 37.0446 107.367 37.8542 107.217 38.8965H114.614ZM126.151 35.8255V43.3076C126.151 43.8287 126.273 44.2103 126.516 44.4522C126.779 44.6756 127.21 44.7873 127.81 44.7873H129.638V48.0816H127.163C123.845 48.0816 122.185 46.481 122.185 43.2797V35.8255H120.329V32.6148H122.185V28.79H126.151V32.6148H129.638V35.8255H126.151ZM147.18 39.8457H141.864V45.2619H138.152V39.8457H132.836V36.4397H138.152V31.0235H141.864V36.4397H147.18V39.8457Z" fill="black"/>
<mask id="mask0_102_28" style="mask-type:luminance" maskUnits="userSpaceOnUse" x="22" y="24" width="33" height="28">
<path d="M38.2439 24L44.2917 38.9425L54.1473 51.7334L38.087 49.4612L22 51.5383L32.0125 38.8679L38.2439 24Z" fill="white"/>
</mask>
<g mask="url(#mask0_102_28)">
<path d="M38.2439 24L52.0176 18.5069L38.4838 -14.9319L24.5389 18.3401L38.2439 24ZM44.2917 38.9425L30.518 44.4356L31.2722 46.2991L32.5013 47.8942L44.2917 38.9425ZM54.1473 51.7334L52.0528 66.3207L87.9929 71.4055L65.9377 42.7817L54.1473 51.7334ZM38.087 49.4611L40.1816 34.8739L38.1787 34.5905L36.1725 34.8495L38.087 49.4611ZM22 51.5383L10.3208 42.444L-12.0854 70.798L23.9146 66.1498L22 51.5383ZM32.0125 38.8679L43.6917 47.9622L44.9404 46.382L45.7175 44.5278L32.0125 38.8679ZM24.4702 29.4931L30.518 44.4356L58.0654 33.4494L52.0176 18.5069L24.4702 29.4931ZM32.5013 47.8942L42.357 60.6851L65.9377 42.7817L56.082 29.9908L32.5013 47.8942ZM56.2418 37.1461L40.1816 34.8739L35.9926 64.0484L52.0528 66.3207L56.2418 37.1461ZM36.1725 34.8495L20.0854 36.9266L23.9146 66.1498L40.0016 64.0728L36.1725 34.8495ZM33.6792 60.6324L43.6917 47.9622L20.3333 29.7737L10.3208 42.444L33.6792 60.6324ZM45.7175 44.5278L51.9489 29.6599L24.5389 18.3401L18.3075 33.2081L45.7175 44.5278Z" fill="#E2E2E2"/>
</g>
<defs>
<linearGradient id="paint0_linear_102_28" x1="38.2812" y1="0" x2="38.2812" y2="76" gradientUnits="userSpaceOnUse">
<stop stop-color="#13505B"/>
<stop offset="1" stop-color="#28AAC1"/>
</linearGradient>
</defs>
</svg>
