<svg width="24" height="19" viewBox="0 0 24 19" fill="none" xmlns="http://www.w3.org/2000/svg">
<g clip-path="url(#clip0_139_36)">
<path d="M5.34375 0C6.13111 0 6.88622 0.312778 7.44297 0.869527C7.99972 1.42628 8.3125 2.18139 8.3125 2.96875C8.3125 3.75611 7.99972 4.51122 7.44297 5.06797C6.88622 5.62472 6.13111 5.9375 5.34375 5.9375C4.55639 5.9375 3.80128 5.62472 3.24453 5.06797C2.68778 4.51122 2.375 3.75611 2.375 2.96875C2.375 2.18139 2.68778 1.42628 3.24453 0.869527C3.80128 0.312778 4.55639 0 5.34375 0ZM19 0C19.7874 0 20.5425 0.312778 21.0992 0.869527C21.656 1.42628 21.9688 2.18139 21.9688 2.96875C21.9688 3.75611 21.656 4.51122 21.0992 5.06797C20.5425 5.62472 19.7874 5.9375 19 5.9375C18.2126 5.9375 17.4575 5.62472 16.9008 5.06797C16.344 4.51122 16.0312 3.75611 16.0312 2.96875C16.0312 2.18139 16.344 1.42628 16.9008 0.869527C17.4575 0.312778 18.2126 0 19 0ZM0 11.0846C0 8.89883 1.77383 7.125 3.95957 7.125H5.54414C6.13418 7.125 6.69453 7.25488 7.19922 7.48496C7.15098 7.75215 7.12871 8.03047 7.12871 8.3125C7.12871 9.73008 7.75215 11.0029 8.73555 11.875C8.72812 11.875 8.7207 11.875 8.70957 11.875H0.79043C0.35625 11.875 0 11.5188 0 11.0846ZM15.0404 11.875C15.033 11.875 15.0256 11.875 15.0145 11.875C16.0016 11.0029 16.6213 9.73008 16.6213 8.3125C16.6213 8.03047 16.5953 7.75586 16.5508 7.48496C17.0555 7.25117 17.6158 7.125 18.2059 7.125H19.7904C21.9762 7.125 23.75 8.89883 23.75 11.0846C23.75 11.5225 23.3938 11.875 22.9596 11.875H15.0441H15.0404ZM8.3125 8.3125C8.3125 7.36767 8.68783 6.46153 9.35593 5.79343C10.024 5.12533 10.9302 4.75 11.875 4.75C12.8198 4.75 13.726 5.12533 14.3941 5.79343C15.0622 6.46153 15.4375 7.36767 15.4375 8.3125C15.4375 9.25733 15.0622 10.1635 14.3941 10.8316C13.726 11.4997 12.8198 11.875 11.875 11.875C10.9302 11.875 10.024 11.4997 9.35593 10.8316C8.68783 10.1635 8.3125 9.25733 8.3125 8.3125ZM4.75 18.0092C4.75 15.2779 6.96543 13.0625 9.69668 13.0625H14.0496C16.7846 13.0625 19 15.2779 19 18.0092C19 18.5547 18.5584 19 18.0092 19H5.73711C5.1916 19 4.74629 18.5584 4.74629 18.0092H4.75Z" fill="#4592A3"/>
</g>
<defs>
<clipPath id="clip0_139_36">
<rect width="23.75" height="19" fill="white"/>
</clipPath>
</defs>
</svg>
