<svg width="24" height="27" viewBox="0 0 24 27" fill="none" xmlns="http://www.w3.org/2000/svg">
<g clip-path="url(#clip0_139_38)">
<path d="M10.125 3.375V6.75C10.125 7.6834 10.8791 8.4375 11.8125 8.4375H15.1875C16.1209 8.4375 16.875 7.6834 16.875 6.75V3.375C16.875 2.4416 16.1209 1.6875 15.1875 1.6875H11.8125C10.8791 1.6875 10.125 2.4416 10.125 3.375ZM4.36113 10.916C3.5543 11.3801 3.28008 12.4137 3.74414 13.2205L5.43164 16.142C5.8957 16.9488 6.9293 17.223 7.73613 16.759L10.6576 15.0715C11.4645 14.6074 11.7387 13.5738 11.2746 12.767L9.58711 9.84551C9.12305 9.03867 8.08945 8.76445 7.28262 9.22852L4.36113 10.916ZM15.1875 10.125C14.2541 10.125 13.5 10.8791 13.5 11.8125V15.1875C13.5 16.1209 14.2541 16.875 15.1875 16.875H18.5625C19.4959 16.875 20.25 16.1209 20.25 15.1875V11.8125C20.25 10.8791 19.4959 10.125 18.5625 10.125H15.1875ZM18.5625 18.5625C17.6291 18.5625 16.875 19.3166 16.875 20.25V23.625C16.875 24.5584 17.6291 25.3125 18.5625 25.3125H21.9375C22.8709 25.3125 23.625 24.5584 23.625 23.625V20.25C23.625 19.3166 22.8709 18.5625 21.9375 18.5625H18.5625ZM8.4375 20.25V23.625C8.4375 24.5584 9.1916 25.3125 10.125 25.3125H13.5C14.4334 25.3125 15.1875 24.5584 15.1875 23.625V20.25C15.1875 19.3166 14.4334 18.5625 13.5 18.5625H10.125C9.1916 18.5625 8.4375 19.3166 8.4375 20.25ZM1.6875 18.5625C0.754102 18.5625 0 19.3166 0 20.25V23.625C0 24.5584 0.754102 25.3125 1.6875 25.3125H5.0625C5.9959 25.3125 6.75 24.5584 6.75 23.625V20.25C6.75 19.3166 5.9959 18.5625 5.0625 18.5625H1.6875Z" fill="#4592A3"/>
</g>
<defs>
<clipPath id="clip0_139_38">
<rect width="23.625" height="27" fill="white"/>
</clipPath>
</defs>
</svg>
