<svg width="24" height="24" viewBox="0 0 24 24" fill="none" xmlns="http://www.w3.org/2000/svg">
<path d="M1.5 14.8901H3.41L8.41 17.7601C9.50415 18.3813 10.7418 18.7054 12 18.7001" stroke="#4592A3" stroke-width="1.5" stroke-miterlimit="10"/>
<path d="M19.1599 15.7101L20.5899 14.8901H22.4999" stroke="#4592A3" stroke-width="1.5" stroke-miterlimit="10"/>
<path d="M12 18.7002C13.2514 18.702 14.4818 18.3781 15.57 17.7602L17.57 16.5902L13.89 11.0702L11.24 11.7302C10.9811 11.7908 10.716 11.8211 10.45 11.8202C9.94694 11.8203 9.45066 11.7039 9.00004 11.4802C8.74369 11.354 8.52904 11.1568 8.38167 10.9119C8.2343 10.6671 8.16043 10.3851 8.16886 10.0995C8.17729 9.8139 8.26767 9.53674 8.42922 9.30106C8.59078 9.06537 8.81669 8.88111 9.08004 8.77024L14.16 6.60023C14.7344 6.35632 15.3603 6.25879 15.9816 6.31639C16.603 6.37398 17.2003 6.58491 17.72 6.93023L19.64 8.20023H22.5" stroke="#4592A3" stroke-width="1.5" stroke-miterlimit="10"/>
<path d="M1.5 8.20023H4.36L6.28 6.93023C6.79973 6.58491 7.39706 6.37398 8.01839 6.31639C8.63973 6.25879 9.26565 6.35632 9.84 6.60023L12 7.53024" stroke="#4592A3" stroke-width="1.5" stroke-miterlimit="10"/>
<path d="M22.5 6.2998V16.7998" stroke="#4592A3" stroke-width="1.5" stroke-miterlimit="10"/>
<path d="M1.5 6.2998V16.7998" stroke="#4592A3" stroke-width="1.5" stroke-miterlimit="10"/>
</svg>
