<svg width="150" height="76" viewBox="0 0 150 76" fill="none" xmlns="http://www.w3.org/2000/svg">
<path d="M38.2813 0L71.4338 19V57L38.2813 76L5.12872 57V19L38.2813 0Z" fill="url(#paint0_linear_149_229)"/>
<path d="M101.412 34.6251C101.412 35.6674 101.159 36.6445 100.653 37.5565C100.166 38.4685 99.3875 39.2037 98.3187 39.7621C97.2687 40.3204 95.9375 40.5996 94.325 40.5996H91.0344V48.0817H87.0969V28.5947H94.325C95.8437 28.5947 97.1375 28.8553 98.2062 29.3764C99.275 29.8976 100.072 30.6142 100.597 31.5262C101.141 32.4382 101.412 33.4711 101.412 34.6251ZM94.1562 37.4448C95.2437 37.4448 96.05 37.2029 96.575 36.719C97.1 36.2164 97.3625 35.5185 97.3625 34.6251C97.3625 32.7266 96.2937 31.7774 94.1562 31.7774H91.0344V37.4448H94.1562ZM118.692 40.0133C118.692 40.5717 118.655 41.0742 118.58 41.5209H107.189C107.283 42.6377 107.677 43.5124 108.37 44.1453C109.064 44.7781 109.917 45.0945 110.93 45.0945C112.392 45.0945 113.433 44.471 114.052 43.2239H118.298C117.848 44.7129 116.986 45.9413 115.711 46.9092C114.436 47.8584 112.87 48.333 111.014 48.333C109.514 48.333 108.164 48.0073 106.964 47.3559C105.783 46.6858 104.855 45.7459 104.18 44.5361C103.523 43.3263 103.195 41.9304 103.195 40.3484C103.195 38.7477 103.523 37.3425 104.18 36.1327C104.836 34.9229 105.755 33.9923 106.936 33.3408C108.117 32.6894 109.477 32.3637 111.014 32.3637C112.495 32.3637 113.817 32.6801 114.98 33.3129C116.161 33.9457 117.07 34.8484 117.708 36.021C118.364 37.175 118.692 38.5057 118.692 40.0133ZM114.614 38.8966C114.595 37.8915 114.23 37.0912 113.517 36.4956C112.805 35.8814 111.933 35.5743 110.902 35.5743C109.927 35.5743 109.102 35.8721 108.427 36.4677C107.77 37.0447 107.367 37.8543 107.217 38.8966H114.614ZM126.151 35.8256V43.3077C126.151 43.8288 126.273 44.2104 126.516 44.4524C126.779 44.6757 127.21 44.7874 127.81 44.7874H129.638V48.0817H127.163C123.845 48.0817 122.185 46.4811 122.185 43.2798V35.8256H120.329V32.615H122.185V28.7902H126.151V32.615H129.638V35.8256H126.151ZM147.18 39.8458H141.864V45.262H138.152V39.8458H132.836V36.4398H138.152V31.0236H141.864V36.4398H147.18V39.8458Z" fill="white"/>
<mask id="mask0_149_229" style="mask-type:luminance" maskUnits="userSpaceOnUse" x="22" y="24" width="33" height="28">
<path d="M38.2439 24L44.2917 38.9425L54.1473 51.7334L38.087 49.4612L22 51.5383L32.0125 38.8679L38.2439 24Z" fill="white"/>
</mask>
<g mask="url(#mask0_149_229)">
<path d="M38.2439 24.0002L52.0176 18.5071L38.4838 -14.9316L24.5389 18.3403L38.2439 24.0002ZM44.2917 38.9427L30.518 44.4358L31.2722 46.2993L32.5013 47.8945L44.2917 38.9427ZM54.1473 51.7336L52.0528 66.3209L87.9929 71.4058L65.9377 42.7819L54.1473 51.7336ZM38.087 49.4614L40.1816 34.8741L38.1787 34.5907L36.1725 34.8498L38.087 49.4614ZM22 51.5385L10.3208 42.4443L-12.0854 70.7982L23.9146 66.1501L22 51.5385ZM32.0125 38.8681L43.6917 47.9624L44.9404 46.3822L45.7175 44.528L32.0125 38.8681ZM24.4702 29.4933L30.518 44.4358L58.0654 33.4496L52.0176 18.5071L24.4702 29.4933ZM32.5013 47.8945L42.357 60.6853L65.9377 42.7819L56.082 29.991L32.5013 47.8945ZM56.2418 37.1464L40.1816 34.8741L35.9926 64.0487L52.0528 66.3209L56.2418 37.1464ZM36.1725 34.8498L20.0854 36.9269L23.9146 66.1501L40.0016 64.073L36.1725 34.8498ZM33.6792 60.6327L43.6917 47.9624L20.3333 29.774L10.3208 42.4443L33.6792 60.6327ZM45.7175 44.528L51.9489 29.6601L24.5389 18.3403L18.3075 33.2083L45.7175 44.528Z" fill="#E2E2E2"/>
</g>
<defs>
<linearGradient id="paint0_linear_149_229" x1="38.2812" y1="0" x2="38.2812" y2="76" gradientUnits="userSpaceOnUse">
<stop stop-color="#13505B"/>
<stop offset="1" stop-color="#28AAC1"/>
</linearGradient>
</defs>
</svg>
