<svg width="34" height="34" viewBox="0 0 34 34" fill="none" xmlns="http://www.w3.org/2000/svg">
<g clip-path="url(#clip0_139_32)">
<path d="M19.9523 9.81328C19.4341 11.8687 17.7643 13.2103 16.221 12.8136C14.6777 12.4168 13.8461 10.4278 14.3643 8.37238C14.8825 6.31698 16.5522 4.97535 18.0955 5.37209C19.6389 5.76883 20.4704 7.75788 19.9523 9.81328ZM12.3034 10.8047C12.2319 12.5615 11.0985 13.9344 9.77745 13.8689C8.45636 13.8033 7.44223 12.3262 7.51762 10.572C7.59301 8.81767 8.71851 7.43973 10.0396 7.50527C11.3607 7.57081 12.3748 9.04791 12.2994 10.8022L12.3034 10.8047ZM5.95654 18.0191C11.5932 13.761 16.1766 14.6934 17.8078 15.736C19.439 16.7786 22.2099 20.5468 20.7125 27.4505C20.6098 27.9245 20.4104 28.3756 20.1479 28.7864L20.1075 28.8496C19.4562 29.8686 18.1031 30.1665 17.0841 29.5151C16.6299 29.2248 16.2149 28.8817 15.8472 28.4909L12.9269 25.4005C12.4185 24.8642 11.7866 24.4603 11.0864 24.2241L7.05529 22.8715C6.54619 22.7019 6.06059 22.4694 5.60638 22.1791C4.58737 21.5278 4.2895 20.1747 4.94081 19.1557L4.9812 19.0925C5.24374 18.6817 5.56948 18.3113 5.95654 18.0191ZM22.8745 22.24C22.2603 21.0685 23.0303 19.4634 24.5947 18.6608C26.1591 17.8583 27.9216 18.1559 28.5358 19.3273C29.1501 20.4987 28.38 22.1039 26.8156 22.9065C25.2512 23.709 23.4887 23.4114 22.8745 22.24ZM20.8105 15.747C19.8023 14.5129 20.3188 12.4342 21.9666 11.1008C23.6144 9.76735 25.7687 9.68678 26.7769 10.9208C27.785 12.1549 27.2686 14.2337 25.6208 15.5671C23.973 16.9005 21.8186 16.9811 20.8105 15.747Z" fill="#4592A3"/>
</g>
<defs>
<clipPath id="clip0_139_32">
<rect width="24" height="24" fill="white" transform="translate(13.3515 0.42627) rotate(32.585)"/>
</clipPath>
</defs>
</svg>
