<svg width="24" height="24" viewBox="0 0 24 24" fill="none" xmlns="http://www.w3.org/2000/svg">
<g clip-path="url(#clip0_200_93)">
<path d="M13.66 16.0516L8 10.3916L15.27 3.12155C16.2207 2.17044 17.4176 1.50293 18.7264 1.19383C20.0352 0.884738 21.4042 0.946277 22.68 1.37155C23.1053 2.64734 23.1668 4.01637 22.8577 5.32517C22.5486 6.63397 21.8811 7.83082 20.93 8.78155L13.66 16.0516Z" stroke="#4592A3" stroke-width="1.5" stroke-miterlimit="10"/>
<path d="M14.85 10.0002C15.3692 10.0002 15.79 9.59275 15.79 9.09018C15.79 8.5876 15.3692 8.18018 14.85 8.18018C14.3309 8.18018 13.91 8.5876 13.91 9.09018C13.91 9.59275 14.3309 10.0002 14.85 10.0002Z" stroke="#4592A3" stroke-width="1.5" stroke-miterlimit="10"/>
<path d="M9.83 16.66L7 13.83L8.42 11L12.66 15.24L9.83 16.66Z" stroke="#4592A3" stroke-width="1.5" stroke-miterlimit="10"/>
<path d="M15.9399 13.7246C16.3114 14.096 16.606 14.537 16.807 15.0223C17.0081 15.5076 17.1115 16.0277 17.1115 16.553C17.1115 17.0783 17.0081 17.5985 16.807 18.0838C16.606 18.5691 16.3114 19.01 15.9399 19.3815L13.8186 21.5028C13.0685 20.7526 12.647 19.7352 12.647 18.6744C12.647 17.6135 13.0685 16.5961 13.8186 15.8459L15.9399 13.7246Z" stroke="#4592A3" stroke-width="1.5" stroke-miterlimit="10"/>
<path d="M2.17157 10.1716L4.29289 8.05025C5.04304 7.30011 6.06045 6.87868 7.12132 6.87868C8.18219 6.87868 9.1996 7.30011 9.94975 8.05025L7.82843 10.1716C7.07828 10.9217 6.06087 11.3431 5 11.3431C3.93913 11.3431 2.92172 10.9217 2.17157 10.1716Z" stroke="#4592A3" stroke-width="1.5" stroke-miterlimit="10"/>
<path d="M3.72997 16.036C3.99069 15.7349 4.30875 15.4888 4.66559 15.312C5.02243 15.1351 5.41091 15.0311 5.80837 15.006C6.20584 14.9808 6.60432 15.0351 6.9806 15.1656C7.35687 15.2961 7.70339 15.5002 7.99997 15.766C8.26577 16.0625 8.46987 16.4091 8.60035 16.7853C8.73083 17.1616 8.78509 17.5601 8.75995 17.9576C8.73482 18.355 8.6308 18.7435 8.45397 19.1003C8.27713 19.4572 8.03101 19.7752 7.72997 20.036C5.44997 22.316 1.49997 22.266 1.49997 22.266C1.49997 22.266 1.44997 18.316 3.72997 16.036Z" stroke="#4592A3" stroke-width="1.5" stroke-miterlimit="10"/>
</g>
<defs>
<clipPath id="clip0_200_93">
<rect width="24" height="24" fill="white"/>
</clipPath>
</defs>
</svg>
